<svg width="32" height="32" fill="none" xmlns="http://www.w3.org/2000/svg"><path d="M6.326 0v31.623H4.767V9.186l-.52 2.183-1.016 4.367-.045.151-.068-.15L2.1 11.368 1.58 9.11v22.513H0V0h1.582l1.604 6.776L4.767 0h1.56zM3.931 15.887l-.045-.15.045.15z" fill="#0AD9C6"/><path d="M4 15.736l-.046.151h-.023l.068-.15zm14.088-6.879l-4.32 10.573 1 4.54 4.32-10.572-1-4.54z" fill="#0AD9C6"/><path d="M12.624 4.733c-1.829 0-3.334 4.938-3.334 11.11 0 6.097 1.482 11.112 3.334 11.112 1.83 0 3.334-4.938 3.334-11.111 0-6.096-1.505-11.111-3.334-11.111zm0 16.203c-.857 0-1.528-2.314-1.528-5.092 0-2.855.695-5.093 1.528-5.093.834 0 1.528 2.315 1.528 5.093s-.694 5.092-1.528 5.092zm8.035-16.203c-1.83 0-3.334 4.938-3.334 11.11 0 6.097 1.481 11.112 3.334 11.112 1.829 0 3.334-4.938 3.334-11.111-.023-6.096-1.505-11.111-3.334-11.111zm0 16.203c-.857 0-1.528-2.314-1.528-5.092 0-2.855.694-5.093 1.528-5.093.833 0 1.528 2.315 1.528 5.093s-.695 5.092-1.528 5.092zM32 .376V32h-1.582V15.586l-1.333-4.217-.994-3.237V32H26.51V.376h1.581l1.853 5.949.474 1.506V.376H32z" fill="#0AD9C6"/><path fill="#0AD9C6" d="M17.515 4.733h2.84v6.31h-2.84z"/></svg>